<svg width="256" height="256" viewBox="0 0 256 256" fill="none" xmlns="http://www.w3.org/2000/svg">
<path d="M216 72H40C35.5817 72 32 75.5817 32 80V208C32 212.418 35.5817 216 40 216H216C220.418 216 224 212.418 224 208V80C224 75.5817 220.418 72 216 72Z" stroke="black" stroke-width="8" stroke-linecap="round" stroke-linejoin="round"/>
<path d="M88 104V72C88 61.3913 92.2143 51.2172 99.7157 43.7157C107.217 36.2143 117.391 32 128 32C138.609 32 148.783 36.2143 156.284 43.7157C163.786 51.2172 168 61.3913 168 72V104" stroke="black" stroke-width="8" stroke-linecap="round" stroke-linejoin="round"/>
</svg>
