<svg width="64" height="64" viewBox="0 0 64 64" fill="none" xmlns="http://www.w3.org/2000/svg">
<path d="M48.5 45.7H18.2C17.7 45.7 17.3 45.5 17.1 45.1C16.8 44.7 16.8 44.2 17 43.8L19.6 37.2L17 12.6H8.60001V9.79999H18.2C18.9 9.79999 19.5 10.3 19.6 11L22.4 37.1C22.4 37.3 22.4 37.5 22.3 37.8L20.3 42.8H48.5V45.7" fill="#134563"/>
<path d="M21.3 38.8L20.7 36.1L52.6 29.5V18.2H19.6V15.4H54C54.8 15.4 55.4 16 55.4 16.8V30.6C55.4 31.3 54.9 31.8 54.3 31.9L21.3 38.8ZM49.9 54C46.9 54 44.4 51.5 44.4 48.5C44.4 45.5 46.9 43 49.9 43C52.9 43 55.4 45.5 55.4 48.5C55.4 51.5 52.9 54 49.9 54ZM49.9 45.7C48.4 45.7 47.1 46.9 47.1 48.5C47.1 50.1 48.3 51.3 49.9 51.3C51.5 51.3 52.7 50.1 52.7 48.5C52.7 46.9 51.4 45.7 49.9 45.7ZM16.9 54C13.9 54 11.4 51.5 11.4 48.5C11.4 45.5 13.9 43 16.9 43C19.9 43 22.4 45.5 22.4 48.5C22.4 51.5 19.9 54 16.9 54ZM16.9 45.7C15.4 45.7 14.1 46.9 14.1 48.5C14.1 50.1 15.3 51.3 16.9 51.3C18.5 51.3 19.7 50.1 19.7 48.5C19.7 46.9 18.4 45.7 16.9 45.7Z" fill="#134563"/>
</svg>
