<svg width="81" height="74" viewBox="0 0 81 74" fill="none" xmlns="http://www.w3.org/2000/svg">
<path d="M71.8036 45.1208C71.7963 43.3221 71.1888 41.5667 70.0599 40.0816C68.931 38.5966 67.3326 37.4502 65.4712 36.7906L71.7036 15.8153C71.8338 15.3686 71.8474 14.9009 71.7434 14.4487C71.6393 13.9964 71.4204 13.572 71.1037 13.2084C70.78 12.8677 70.3754 12.5966 69.9198 12.4151C69.4641 12.2336 68.969 12.1463 68.4708 12.1596H22.8109L21.711 8.38406C21.5198 7.74554 21.0991 7.18183 20.5143 6.78075C19.9295 6.37968 19.2137 6.16377 18.4782 6.16667H11.8125V12.1596H15.9119L24.1773 39.907C24.3726 40.5607 24.8084 41.1357 25.4136 41.5383C26.0188 41.941 26.7577 42.1475 27.5102 42.1244H61.8051C62.689 42.1244 63.5368 42.4401 64.1618 43.002C64.7868 43.564 65.138 44.3261 65.138 45.1208C65.138 45.9155 64.7868 46.6777 64.1618 47.2397C63.5368 47.8016 62.689 48.1173 61.8051 48.1173H18.4782C17.5943 48.1173 16.7465 48.433 16.1215 48.995C15.4965 49.5569 15.1453 50.3191 15.1453 51.1138C15.1453 51.9085 15.4965 52.6707 16.1215 53.2326C16.7465 53.7946 17.5943 54.1103 18.4782 54.1103H22.4109C21.8628 55.4681 21.6867 56.9246 21.8974 58.3566C22.1082 59.7886 22.6997 61.1538 23.6218 62.3367C24.5439 63.5195 25.7695 64.4852 27.1947 65.1519C28.62 65.8186 30.2029 66.1666 31.8095 66.1666C33.4162 66.1666 34.9991 65.8186 36.4244 65.1519C37.8496 64.4852 39.0752 63.5195 39.9973 62.3367C40.9194 61.1538 41.5109 59.7886 41.7216 58.3566C41.9324 56.9246 41.7563 55.4681 41.2082 54.1103H49.0737C48.5747 55.3466 48.3835 56.6664 48.5137 57.9764C48.6439 59.2864 49.0922 60.5548 49.827 61.692C50.5619 62.8293 51.5653 63.8077 52.7666 64.5583C53.9678 65.3089 55.3377 65.8133 56.7794 66.0361C58.2212 66.2588 59.6997 66.1944 61.1108 65.8473C62.5218 65.5003 63.8309 64.8791 64.9458 64.0276C66.0607 63.1761 66.9542 62.115 67.5633 60.9192C68.1724 59.7233 68.4821 58.4219 68.4708 57.1067C68.4646 55.5587 68.0048 54.0394 67.1377 52.7019C68.5628 51.8941 69.7378 50.7755 70.5536 49.4501C71.3693 48.1248 71.7993 46.6356 71.8036 45.1208V45.1208ZM58.7722 36.1314H30.1431L24.6106 18.1526H64.1381L58.7722 36.1314ZM31.8095 60.1032C31.1504 60.1032 30.506 59.9275 29.9579 59.5982C29.4098 59.269 28.9827 58.801 28.7304 58.2534C28.4781 57.7059 28.4121 57.1034 28.5407 56.5221C28.6693 55.9409 28.9868 55.407 29.4529 54.9879C29.919 54.5688 30.5128 54.2835 31.1593 54.1678C31.8058 54.0522 32.476 54.1116 33.085 54.3384C33.694 54.5651 34.2145 54.9492 34.5807 55.442C34.9469 55.9347 35.1424 56.5141 35.1424 57.1067C35.1424 57.9014 34.7912 58.6636 34.1662 59.2256C33.5412 59.7875 32.6935 60.1032 31.8095 60.1032ZM58.4723 60.1032C57.8131 60.1032 57.1687 59.9275 56.6206 59.5982C56.0726 59.269 55.6454 58.801 55.3931 58.2534C55.1409 57.7059 55.0749 57.1034 55.2035 56.5221C55.3321 55.9409 55.6495 55.407 56.1156 54.9879C56.5817 54.5688 57.1756 54.2835 57.8221 54.1678C58.4686 54.0522 59.1387 54.1116 59.7477 54.3384C60.3567 54.5651 60.8772 54.9492 61.2434 55.442C61.6096 55.9347 61.8051 56.5141 61.8051 57.1067C61.8051 57.9014 61.454 58.6636 60.8289 59.2256C60.2039 59.7875 59.3562 60.1032 58.4723 60.1032Z" fill="black"/>
</svg>
