<svg width="50" height="40" viewBox="0 0 50 40" fill="none" xmlns="http://www.w3.org/2000/svg">
<path d="M40.625 40H9.375C4.19688 40 0 36.6425 0 32.5V7.5C0 3.3575 4.19688 0 9.375 0H40.625C45.8031 0 50 3.3575 50 7.5V32.5C50 36.6425 45.8031 40 40.625 40Z" fill="#E3F8FA"/>
<path d="M37.5 10.655C37.5203 10.31 37.1875 10.0175 36.7563 10.0013C36.3031 9.9675 35.9594 10.2512 35.9391 10.595C35.7563 13.6725 34.1281 15.625 31.7719 17.06V10.625C31.7719 10.28 31.4219 10 30.9906 10H26.8234C26.3922 10 26.0422 10.28 26.0422 10.625V19.4938C25.3578 19.7175 24.6609 19.9363 23.9594 20.1563V10.625C23.9594 10.28 23.6094 10 23.1781 10H19.0109C18.5797 10 18.2297 10.28 18.2297 10.625V22.19C14.9438 23.66 12.4672 25.7063 12.5 29.3788C12.5031 29.7225 12.8516 30 13.2813 30C13.2828 30 13.2844 30 13.2875 30C13.7188 29.9975 14.0656 29.715 14.0625 29.37C14.0375 26.5663 15.7109 24.8913 18.2281 23.6275V29.375C18.2281 29.72 18.5781 30 19.0094 30H23.1766C23.6078 30 23.9578 29.72 23.9578 29.375V21.4988C24.1281 21.445 24.2953 21.3925 24.4672 21.3388C24.9875 21.1763 25.5141 21.01 26.0422 20.84V29.375C26.0422 29.72 26.3922 30 26.8234 30H30.9906C31.4219 30 31.7719 29.72 31.7719 29.375V18.5663C34.8844 16.9213 37.2656 14.5775 37.5 10.655Z" fill="#26C6DA"/>
</svg>
