<svg width="50" height="40" viewBox="0 0 50 40" fill="none" xmlns="http://www.w3.org/2000/svg">
<path d="M49.9982 1.31286C50.0389 0.622915 49.3733 0.0379585 48.5108 0.00546094C47.6046 -0.0620341 46.9171 0.505423 46.8765 1.19287C46.5109 7.34742 43.2548 11.2521 38.5425 14.1219V1.25287C38.5425 0.562919 37.8426 0.00296012 36.9801 0.00296012H28.6461C27.7837 0.00296012 27.0837 0.562919 27.0837 1.25287V18.9891C25.715 19.4365 24.3213 19.874 22.9183 20.314V1.25287C22.9183 0.562919 22.2183 0.00296012 21.3559 0.00296012H13.0219C12.1594 0.00296012 11.4595 0.562919 11.4595 1.25287V24.3812C4.88791 27.3209 -0.0649773 31.4131 0.000644505 38.7576C0.0068942 39.445 0.703736 40 1.56307 40C1.56619 40 1.56932 40 1.57557 40C2.43803 39.995 3.13174 39.43 3.12549 38.7401C3.0755 33.133 6.42221 29.7833 11.4563 27.2559V38.7501C11.4563 39.44 12.1563 40 13.0188 40H21.3527C22.2152 40 22.9152 39.44 22.9152 38.7501V22.9988C23.2558 22.8913 23.5901 22.7863 23.9339 22.6788C24.9744 22.3538 26.0275 22.0213 27.0837 21.6814V38.7501C27.0837 39.44 27.7837 40 28.6461 40H36.9801C37.8426 40 38.5425 39.44 38.5425 38.7501V17.1342C44.7672 13.8444 49.5295 9.15728 49.9982 1.31286Z" fill="#539092"/>
</svg>
