<svg width="155" height="216" viewBox="0 0 155 216" fill="none" xmlns="http://www.w3.org/2000/svg">
<path d="M130.313 17.4945H119.82C116.037 17.4945 112.971 20.5609 112.971 24.3435V62.4845C112.971 66.2671 116.037 69.3335 119.82 69.3335H130.313C134.096 69.3335 137.162 66.2671 137.162 62.4845V24.3435C137.162 20.5609 134.096 17.4945 130.313 17.4945Z" fill="#FFCA43"/>
<path d="M91.077 212.067V175.934H135.556L96.977 214.514C96.4935 214.998 95.8773 215.327 95.2066 215.46C94.5359 215.593 93.8407 215.525 93.209 215.263C92.5773 215.001 92.0375 214.557 91.658 213.988C91.2785 213.42 91.0763 212.751 91.077 212.067Z" fill="#FFCA43"/>
<path d="M137.939 173.689H91.077V178.02H133.383L137.939 173.689Z" fill="#BEB81D"/>
<path d="M147.573 66.7056L83.563 2.68955C81.8319 0.967004 79.4891 0 77.047 0C74.6049 0 72.2621 0.967004 70.531 2.68955L6.522 66.7056C2.61598 71.0498 0.314442 76.5999 0 82.4335V93.7095C34.9704 119.728 77.4128 133.747 121 133.677C132.085 133.679 143.152 132.778 154.091 130.983V82.4335C153.773 76.6015 151.474 71.0528 147.573 66.7056Z" fill="#FFCA43"/>
<path d="M121.002 144.045C77.4149 144.114 34.9726 130.095 0.00198364 104.078V164.989C0.00989365 167.431 0.983311 169.77 2.70975 171.496C4.43618 173.223 6.77544 174.196 9.21698 174.204H144.879C147.32 174.196 149.659 173.222 151.386 171.496C153.112 169.769 154.085 167.43 154.093 164.989V141.351C143.154 143.146 132.087 144.047 121.002 144.045Z" fill="#FFCA43"/>
</svg>
